<?xml version="1.0" encoding="iso-8859-1"?>
<!-- Generator: Adobe Illustrator 16.0.0, SVG Export Plug-In . SVG Version: 6.00 Build 0)  -->
<!DOCTYPE svg PUBLIC "-//W3C//DTD SVG 1.1//EN" "http://www.w3.org/Graphics/SVG/1.1/DTD/svg11.dtd">
<svg version="1.1" id="Capa_1" xmlns="http://www.w3.org/2000/svg" xmlns:xlink="http://www.w3.org/1999/xlink" x="0px" y="0px"
	 width="273.359px" height="273.359px" viewBox="0 0 273.359 273.359" style="enable-background:new 0 0 273.359 273.359;"
	 xml:space="preserve">
<g>
	<path d="M273.355,124.936c0.3-15.7-15.4-27.7-29.2-31.7c-15.5-4.4-45.4,3.1-58.1-9.4c-11.301-22.7,0.699-83.3-35.801-82.6
		c-16.799,0.3-28.199,21.4-34.699,34.1c-8,15.6-14.6,33.9-17.6,51.4c-0.8-0.5-1.7-0.9-2.9-0.9c-25.6-0.4-72.2-19.8-90.9,5.9
		c-16.4,22.4,19.5,52.5,42.4,70.4c-10.7,24.3-54.2,74.3-29.3,90.9c29.1,19.399,70-31,91.8-44c29.3-17.5,57.199,83.6,93.6,59.3
		c29.5-19.601,16.5-68.5-0.5-95C224.655,162.037,272.755,152.236,273.355,124.936z M190.855,166.336c-0.5,0.399-0.8,0.8-1.2,1.2
		c-1.7,1.5-2.5,4-0.9,6.699c8.301,14.301,13.2,29.9,17,45.9c4.5,19.3-11.399,45-30.5,28c-5.399-4.8-10-10.6-14.699-16
		c-9.801-11.4-29.1-41.5-48.5-36.7c-24.4,6-44.8,32-65.4,44.9c-17,10.7-24.4-9.4-16.8-22.9c4.2-7.6,9.2-14.8,13.8-22.2
		c5.4-8.699,9.4-17.199,11.2-26.6c2,1.6,3.8,3,5.3,4.2c1.7,1.5,4.4-0.4,3.2-2.5c-1.6-2.9-4.3-6.101-7.6-9.601
		c0.1-1.399,0.1-2.8,0-4.3c-0.1-3.399-4.9-4.7-6.5-2.2c-18.3-17.5-44.9-39.2-36-57.2c6-12.2,34.9-6.1,44.9-4.6
		c11.8,1.7,24.9,5.6,36.8,4.2c2.7-0.3,4.4-2.2,4.9-4.3c1.2,0.4,2.6,0.1,3.4-1.4c6.2-11.7,10.5-24.4,16.1-36.4
		c6.3-13.3,14.9-36,30.1-41.2c15.9-5.4,17.8,35.7,18.8,43.7c1.4,12.2,2,26.4,10.2,36.3c1.5,1.8,3.601,2.1,5.5,1.4
		c16.4,13,54.7,4.2,70.4,17.2C282.556,135.236,204.355,157.236,190.855,166.336z"/>
</g>
<g>
</g>
<g>
</g>
<g>
</g>
<g>
</g>
<g>
</g>
<g>
</g>
<g>
</g>
<g>
</g>
<g>
</g>
<g>
</g>
<g>
</g>
<g>
</g>
<g>
</g>
<g>
</g>
<g>
</g>
</svg>
