<?xml version="1.0" encoding="iso-8859-1"?>
<!-- Generator: Adobe Illustrator 16.0.0, SVG Export Plug-In . SVG Version: 6.00 Build 0)  -->
<!DOCTYPE svg PUBLIC "-//W3C//DTD SVG 1.1//EN" "http://www.w3.org/Graphics/SVG/1.1/DTD/svg11.dtd">
<svg version="1.1" id="Capa_1" xmlns="http://www.w3.org/2000/svg" xmlns:xlink="http://www.w3.org/1999/xlink" x="0px" y="0px"
	 width="270.018px" height="270.019px" viewBox="0 0 270.018 270.019" style="enable-background:new 0 0 270.018 270.019;"
	 xml:space="preserve">
<g>
	<g>
		<path d="M265.044,59.094c-32.8-17.7-64.5-37.6-97.8-54.4c-1.899-1-3.5-0.3-4.6,0.8c-0.2,0-0.3,0-0.4,0c-8,1.1-15.6,9.4-19.6,16
			c-3.4,5.7-4,13.1-2.5,19.7c-8.4,0.2-16.9,0.5-25.3,1c2.9-11.4-1.2-29.6-10.7-36.2c-12.1-8.5-31.2-5.5-45-5.4
			c-2.9,0-5.7,2.5-5.5,5.5c0.7,12.8,1.2,25.6,2.4,38.4c-9.7,0.7-18.9,2.4-25.7,6.8c-0.1,0.1-0.1,0.2-0.1,0.2
			c-1.8-1.7-5.4-1.5-6.4,0.9v0.1c-0.8-0.9-2.1-1.3-3.4-0.4c-19,12.7-18.7,14.4-18.1,36.7c0.4,15.2-0.7,39.5,10,52
			c7.5,8.7,20,4.4,30.1,3.5c3.2-0.3,6.3-0.7,9.5-1c-3.6,16.5-3.8,33.1-3.3,50.2c0.6,18.899-1.4,38.399,0.5,57.1
			c2.7,27,36.9,17.5,54.8,18.9c3.3,0.3,6.2-3,6.1-6.101c-0.4-41.1-9.7-85.899-1-126.6c16.2-0.7,21.8,3,28.4,21.9
			c1.5,4.199,6.4,5.6,9.8,2.6c6.8-6.2,15.101-11.3,20.9-18.4c0.6,1.101,1.5,2.2,2.7,2.9c1.1,0.7,3.1,0.8,4.199,0
			c1.4-1.1,2.301-2.3,2.7-3.7c1,0.8,2.3,1.3,3.8,0.8c34-11.5,59.9-41.7,81.301-69.1c1.199-1.5,1.5-3.1,1.3-4.7
			C267.945,67.494,269.745,61.594,265.044,59.094z M64.345,11.594c10.5-0.3,22.8-1.2,31.8,3.3c9.5,4.8,5.9,19.2,8.1,28
			c-4.1,0.3-8.2,0.5-12.3,0.8c-8.5,0.6-19.1,0.2-29.7,0.5C63.245,33.293,63.745,22.394,64.345,11.594z M80.044,257.494
			c-20.8,0.8-19.7-17.5-18.8-31.7c1.7-27.8-4.5-55.3-3.5-83.2c12.3-1.5,24.6-3.3,37-4.6c-3,13.1-0.8,31.8-0.7,39.7
			c0.3,26.5,2.8,52.899,3.4,79.399C91.645,256.994,85.845,257.194,80.044,257.494z M177.945,134.494c-0.1,0-0.1,0.1-0.2,0.2
			c-0.3-1.4-0.6-2.9-0.8-4.3c-1.4-8.5-2.4-16.9-2.8-25.5c-0.101-2.1-1.7-3.1-3.3-3c-0.7-1.1-1.9-1.8-3.601-1.7
			c-42.4,2.6-89,1.5-130.4,12.8c0-11.1-1.1-22.2-2.1-33.3c-0.7-8-0.2-17.3-2.8-25c14.3,7.6,36.3,2.1,51.7,1.1
			c27.3-1.7,54.5-3.7,81.8-2.8c5.9,0.2,7.2-6.8,4-10.1c0.4-5.4,0.6-10.7,0.6-16.1c0-3.7,0.101-7.8-0.6-11.6
			c27.3,18.2,55.7,35,84.6,50.5C232.945,92.793,209.245,119.494,177.945,134.494z"/>
		<path d="M97.044,74.894c-2.2-3.7-6.4-5.3-10.5-5.6c-3.5-0.2-8.4,1-11.3,3.6c-1.2,0.1-2.5,0.3-3.9,0.9c-3.7,1.7-5.6,6.6-5.5,10.4
			c0.1,4.5,2.7,8.7,6.6,10.9c4.8,2.8,11.2,1.6,16.1-0.5C95.845,91.594,101.544,82.694,97.044,74.894z M88.444,81.394
			c-0.2,1-1.1,2.3-2.4,3.2c-2.4,1.7-9,4-10.5,0.2c-0.8-2-0.2-3.6,1-4.8c4,0.4,9.3-2.4,11.6-0.2
			C88.444,80.094,88.645,80.594,88.444,81.394z"/>
	</g>
</g>
<g>
</g>
<g>
</g>
<g>
</g>
<g>
</g>
<g>
</g>
<g>
</g>
<g>
</g>
<g>
</g>
<g>
</g>
<g>
</g>
<g>
</g>
<g>
</g>
<g>
</g>
<g>
</g>
<g>
</g>
</svg>
